<svg width="70" height="26" viewBox="0 0 70 26" fill="none" xmlns="http://www.w3.org/2000/svg">
<path d="M68.9889 10.0981L68.788 12.4704H67.8158C66.2667 12.4704 65.463 13.7083 65.463 14.9009V20.2611H62.7278V10.0981H65.3269L65.3852 11.3685C65.9296 10.5 66.8824 10.0981 68.062 10.0981H68.9889Z" fill="#002856"/>
<path d="M49.9786 20.2611H47.237V14.888C47.237 13.7602 47.1333 12.3472 45.5583 12.3472C44.0351 12.3472 43.4259 13.4491 43.4259 14.7259V20.2546H40.6842V10.0981H43.2314L43.2898 11.3944C43.8342 10.5259 44.8518 9.84537 46.349 9.84537C49.1166 9.84537 49.9851 11.8222 49.9851 13.8704L49.9786 20.2611Z" fill="#002856"/>
<path d="M39.4852 17.8889L39.2907 20.2028C38.6555 20.3713 38.0009 20.4556 37.3398 20.4426C34.7537 20.4426 34.0018 19.2565 34.0018 16.8713V7.23334H36.75V10.0982H39.4787L39.2907 12.4704H36.75V16.6574C36.75 17.6167 37.0092 18.1287 37.9944 18.1287C38.5 18.1352 39.0055 18.0509 39.4852 17.8889Z" fill="#002856"/>
<path d="M33.1075 10.0981L32.8936 12.4704H32.1482C30.6056 12.4704 29.8343 13.7083 29.8343 14.9009V20.2611H27.0927V10.0981H29.6852L29.7371 11.3685C30.288 10.5065 31.2408 10.0981 32.4204 10.0981H33.1075Z" fill="#002856"/>
<path d="M14.7064 19.1333C12.8463 20.1315 10.9861 20.7018 8.52959 20.6305C3.97959 20.4944 0.693481 17.662 0.693481 12.8917C0.693481 8.14073 4.012 5.10092 8.53607 5.02962C10.8305 4.99722 12.8787 5.57407 14.4861 6.99351L12.5481 8.94444C11.5564 8.09536 10.0981 7.60277 8.34811 7.68055C5.50274 7.81018 3.78515 9.88425 3.74626 12.7231C3.70737 15.8018 5.59996 17.9278 8.55552 18.0055C9.94904 18.038 10.9407 17.8565 11.8027 17.4676V14.3241H8.73052L8.93793 11.738H14.7L14.7064 19.1333Z" fill="#002856"/>
<path d="M61.5028 16.1519H53.9778C54.1917 17.4482 55.2157 18.2324 56.4861 18.2713C57.7241 18.3037 58.4111 17.9343 59.3185 17.0139L61.1074 18.3685C59.837 19.937 58.3074 20.5074 56.5639 20.5074C53.5046 20.5074 51.2167 18.3685 51.2167 15.1796C51.2167 11.9907 53.4982 9.85185 56.4537 9.85185C59.7139 9.85185 61.4963 11.8287 61.4963 15.3287L61.5028 16.1519ZM58.7546 14.0194C58.6704 12.7361 57.7111 11.9259 56.3824 11.9778C55.0602 12.0296 54.1593 12.8981 53.9778 14.0194H58.7546Z" fill="#002856"/>
<path d="M25.3621 13.6046V20.2611H22.938L22.8797 19.2565C22.1408 20.1769 20.9352 20.5074 19.6908 20.5074C17.8241 20.5074 16.0611 19.587 16.0222 17.4417C15.9704 14.0713 19.8204 13.8315 22.238 13.8315H22.7241V13.6954C22.7241 12.5806 21.9852 11.9778 20.5982 11.9778C19.5871 11.9843 18.6213 12.3667 17.8824 13.0602L16.301 11.4528C17.5713 10.3963 19.1787 9.82593 20.825 9.85186C23.975 9.85186 25.3621 11.3037 25.3621 13.6046ZM22.7241 15.8278H22.3417C21.0454 15.8278 18.7639 15.8926 18.7704 17.2537C18.7834 19.1722 22.7241 18.5565 22.7241 16.2491V15.8278Z" fill="#002856"/>
<path d="M66.85 19.075C66.8695 18.4593 67.3815 17.9796 67.9908 17.9991C68.6065 18.0185 69.0862 18.5306 69.0667 19.1398C69.0473 19.7426 68.5547 20.2157 67.9584 20.2157C67.3426 20.2157 66.85 19.7167 66.85 19.1074C66.85 19.1009 66.85 19.088 66.85 19.075ZM67.9584 20.4491C68.7102 20.4361 69.3195 19.8204 69.3065 19.062C69.2936 18.3102 68.6778 17.7009 67.9195 17.7139C67.1741 17.7269 66.5713 18.3296 66.5713 19.075C66.5649 19.8269 67.1741 20.4426 67.926 20.4491C67.9389 20.4491 67.9519 20.4491 67.9584 20.4491ZM67.6667 19.1852H67.9454L68.3602 19.8657H68.626L68.1852 19.1722C68.4186 19.1463 68.5871 19.0167 68.5871 18.738C68.5871 18.4269 68.4056 18.2907 68.0297 18.2907H67.4334V19.8657H67.6732L67.6667 19.1852ZM67.6667 18.9843V18.4981H67.9908C68.1593 18.4981 68.3343 18.5306 68.3343 18.7315C68.3343 18.9713 68.1528 18.9907 67.9519 18.9907L67.6667 18.9843Z" fill="#002856"/>
</svg>
